# xmcd
#
# Track frame offsets:
#  150
#  18561
#  38966
#  59800
#  81545
#  100845
#  116828
#  134696
#
# Disc length: 2039 seconds
#
# Revision: 0
# Processed by: cddbd v1.5.1PL2 Copyright (c) Steve Scherf et al.
# Submitted via: Collectorz.com_Music_Collector 6.9
#
DISCID=7907f508
DTITLE=Johan Eliasson - Blues With A Feelin'
DYEAR=2006
DGENRE=Blues Traditional
TTITLE0=Jesus Gonna Be Here
TTITLE1=Blues With A Feeling
TTITLE2=Don't Let Nobody Drag Your Spirit Down
TTITLE3=Hard Times
TTITLE4=Swing Low Sweet Chariot
TTITLE5=I Can't Hold Out
TTITLE6=People Get Ready
TTITLE7=Where The Green Grass Grows
EXTD=
EXTT0=
EXTT1=
EXTT2=
EXTT3=
EXTT4=
EXTT5=
EXTT6=
EXTT7=
PLAYORDER=
